<?xml version="1.0" standalone="no"?><!DOCTYPE svg PUBLIC "-//W3C//DTD SVG 1.1//EN" "http://www.w3.org/Graphics/SVG/1.1/DTD/svg11.dtd"><svg t="1672224018743" class="icon" viewBox="0 0 1024 1024" version="1.1" xmlns="http://www.w3.org/2000/svg" p-id="1476" width="32" height="32" xmlns:xlink="http://www.w3.org/1999/xlink"><path d="M452.017588 574.031827v419.876989h-419.87699v-419.876989h419.87699m29.991213-29.991214H2.149385v479.859416h479.859416v-479.859416zM451.617705 29.991214v419.876989h-419.876989v-419.876989h419.876989m29.991213-29.991214H1.749502v479.859416h479.859416V0zM993.658904 574.031827v419.876989h-419.87699v-419.876989h419.87699m29.991213-29.991214h-479.859416v479.859416h479.859416v-479.859416zM993.658904 30.391096v419.87699h-419.87699v-419.87699h419.87699m29.991213-29.991213h-479.859416v479.859416h479.859416V0.399883z" fill="#8a8a8a" p-id="1477"></path><path d="M939.574749 181.846725h19.594259v18.894464h-19.594259zM959.169008 160.15308h-19.594259V84.475251H772.523689V64.880992h186.645319z" fill="#8a8a8a" p-id="1478"></path></svg>