<?xml version="1.0" standalone="no"?><!DOCTYPE svg PUBLIC "-//W3C//DTD SVG 1.1//EN" "http://www.w3.org/Graphics/SVG/1.1/DTD/svg11.dtd"><svg t="1672217494299" class="icon" viewBox="0 0 1024 1024" version="1.1" xmlns="http://www.w3.org/2000/svg" p-id="4954" width="32" height="32" xmlns:xlink="http://www.w3.org/1999/xlink"><path d="M512 104a408.11 408.11 0 0 1 158.8 784 408.11 408.11 0 0 1-317.6-751.9A405.29 405.29 0 0 1 512 104m0-40C264.58 64 64 264.58 64 512s200.58 448 448 448 448-200.58 448-448S759.42 64 512 64z" p-id="4955" fill="#8a8a8a"></path><path d="M512 323.79m-40 0a40 40 0 1 0 80 0 40 40 0 1 0-80 0Z" p-id="4956" fill="#8a8a8a"></path><path d="M469.26 464.29l-18.75 0.23a5.69 5.69 0 0 1-4.69-1.81c-1.34-1.36-1.89-3.32-1.63-5.89a6.63 6.63 0 0 1 2.11-5 9.51 9.51 0 0 1 4.21-2l6.69-0.68q3.82-0.23 13.21-2.72a122.8 122.8 0 0 0 17-5.77 138.49 138.49 0 0 0 18.35-10.08 135.94 135.94 0 0 0 16.54-11.9c3.86-3.39 7-5.21 9.41-5.43s4.49 0.79 6.27 3.06c1 1.51 1.71 4.07 2.09 7.7a125.94 125.94 0 0 1 0.57 12.91V678.6q0 13.14 2.39 21.29a43.33 43.33 0 0 0 6.41 13.59 27 27 0 0 0 10.63 8.5q6.6 3.06 10.23 3.28l7.85 0.68a17.15 17.15 0 0 1 4.69 1.47c1.85 0.84 2.87 2.61 3.06 5.33s-0.48 4.64-2 5.78-3.89 1.69-7.08 1.69H445.15a10.85 10.85 0 0 1-5.36-1q-1.73-1-1.72-5.55 0-3.84 2.29-5.55a11.86 11.86 0 0 1 5.36-2.15l6.51-0.68a44.29 44.29 0 0 0 10.43-2.38 24.44 24.44 0 0 0 11.58-8.38q5-6.22 7.65-16.2a78.83 78.83 0 0 0 2.68-20.61V493.29a145.09 145.09 0 0 0-1-16.43 15.88 15.88 0 0 0-4.21-8.94c-2.25-2.42-5.64-3.63-10.1-3.63z" p-id="4957" fill="#8a8a8a"></path></svg>