<?xml version="1.0" standalone="no"?><!DOCTYPE svg PUBLIC "-//W3C//DTD SVG 1.1//EN" "http://www.w3.org/Graphics/SVG/1.1/DTD/svg11.dtd"><svg t="1672224039416" class="icon" viewBox="0 0 1024 1024" version="1.1" xmlns="http://www.w3.org/2000/svg" p-id="1727" xmlns:xlink="http://www.w3.org/1999/xlink" width="32" height="32"><path d="M496.7 1023.9H26.2V553.4h470.4v470.5zM53.9 996.2H469V581.1H53.9v415.1zM496.7 470.4H26.2V0h470.4v470.4zM53.9 442.7H469v-415H53.9v415z" fill="#8a8a8a" p-id="1728"></path><path d="M418 190h19v18.4h-19zM437 152.4h-19V78.7H255.4v-19H437zM552 27.7h442.7v27.7H552zM552 156.8h442.7v27.7H552zM552 285.9h442.7v27.7H552zM552 415.1h442.7v27.7H552zM552 581.1h442.7v27.7H552zM552 710.2h442.7v27.7H552zM552 839.4h442.7v27.7H552zM552 968.5h442.7v27.7H552z" fill="#8a8a8a" p-id="1729"></path></svg>